<?xml version="1.0" encoding="UTF-8"?>
<svg xmlns="http://www.w3.org/2000/svg" xmlns:xlink="http://www.w3.org/1999/xlink" width="66pt" height="66pt" viewBox="0 0 66 66" version="1.1">
<defs>
<linearGradient id="linear0" gradientUnits="userSpaceOnUse" x1="0" y1="256" x2="512" y2="256" gradientTransform="matrix(0.128564,0,0,0.128564,0,0)">
<stop offset="0" style="stop-color:rgb(0%,95.294118%,55.294118%);stop-opacity:1;"/>
<stop offset="1" style="stop-color:rgb(0%,61.960784%,100%);stop-opacity:1;"/>
</linearGradient>
</defs>
<g id="surface1">
<path style=" stroke:none;fill-rule:nonzero;fill:url(#linear0);" d="M 65.824219 32.914062 C 65.824219 51.089844 51.089844 65.824219 32.914062 65.824219 C 14.734375 65.824219 0 51.089844 0 32.914062 C 0 14.734375 14.734375 0 32.914062 0 C 51.089844 0 65.824219 14.734375 65.824219 32.914062 Z M 65.824219 32.914062 "/>
<path style=" stroke:none;fill-rule:nonzero;fill:rgb(100%,100%,100%);fill-opacity:1;" d="M 19.496094 15.675781 C 19.496094 14.898438 20.125 14.269531 20.902344 14.269531 L 35.21875 14.269531 L 35.21875 19.9375 C 35.21875 22.835938 37.578125 25.199219 40.480469 25.199219 L 46.136719 25.199219 L 46.136719 34.847656 L 49.992188 34.847656 L 49.992188 22.472656 L 37.996094 10.410156 L 20.902344 10.410156 C 18 10.410156 15.636719 12.773438 15.636719 15.675781 L 15.636719 34.847656 L 19.496094 34.847656 Z M 39.074219 19.9375 L 39.074219 16.96875 L 43.425781 21.339844 L 40.480469 21.339844 C 39.707031 21.339844 39.074219 20.710938 39.074219 19.9375 Z M 39.074219 19.9375 "/>
<path style=" stroke:none;fill-rule:nonzero;fill:rgb(100%,100%,100%);fill-opacity:1;" d="M 47.53125 43.835938 L 44.699219 43.835938 C 44.128906 43.835938 43.667969 43.375 43.667969 42.804688 C 43.667969 42.238281 44.128906 41.777344 44.699219 41.777344 L 50.410156 41.777344 L 50.410156 37.917969 L 44.699219 37.917969 C 42.003906 37.917969 39.8125 40.113281 39.8125 42.804688 C 39.8125 45.5 42.003906 47.695312 44.699219 47.695312 L 47.53125 47.695312 C 48.101562 47.695312 48.5625 48.15625 48.5625 48.722656 C 48.5625 49.292969 48.101562 49.753906 47.53125 49.753906 L 40.074219 49.753906 L 40.074219 53.613281 L 47.53125 53.613281 C 50.226562 53.613281 52.417969 51.417969 52.417969 48.722656 C 52.417969 46.027344 50.226562 43.835938 47.53125 43.835938 Z M 47.53125 43.835938 "/>
<path style=" stroke:none;fill-rule:nonzero;fill:rgb(100%,100%,100%);fill-opacity:1;" d="M 34.195312 43.835938 L 31.363281 43.835938 C 30.792969 43.835938 30.332031 43.375 30.332031 42.804688 C 30.332031 42.238281 30.792969 41.777344 31.363281 41.777344 L 37.070312 41.777344 L 37.070312 37.917969 L 31.363281 37.917969 C 28.667969 37.917969 26.472656 40.113281 26.472656 42.804688 C 26.472656 45.5 28.667969 47.695312 31.363281 47.695312 L 34.195312 47.695312 C 34.761719 47.695312 35.226562 48.15625 35.226562 48.722656 C 35.226562 49.292969 34.761719 49.753906 34.195312 49.753906 L 26.734375 49.753906 L 26.734375 53.613281 L 34.195312 53.613281 C 36.890625 53.613281 39.082031 51.417969 39.082031 48.722656 C 39.082031 46.027344 36.890625 43.835938 34.195312 43.835938 Z M 34.195312 43.835938 "/>
<path style=" stroke:none;fill-rule:nonzero;fill:rgb(100%,100%,100%);fill-opacity:1;" d="M 21.246094 41.777344 C 21.8125 41.777344 22.355469 41.890625 22.867188 42.117188 L 24.4375 38.597656 C 23.429688 38.148438 22.355469 37.917969 21.246094 37.917969 C 16.921875 37.917969 13.40625 41.4375 13.40625 45.765625 C 13.40625 50.089844 16.921875 53.613281 21.246094 53.613281 C 22.355469 53.613281 23.429688 53.382812 24.4375 52.933594 L 22.867188 49.410156 C 22.355469 49.640625 21.8125 49.753906 21.246094 49.753906 C 19.050781 49.753906 17.261719 47.964844 17.261719 45.765625 C 17.261719 43.566406 19.050781 41.777344 21.246094 41.777344 Z M 21.246094 41.777344 "/>
</g>
</svg>
