<?xml version="1.0" encoding="UTF-8"?>
<svg xmlns="http://www.w3.org/2000/svg" xmlns:xlink="http://www.w3.org/1999/xlink" width="68pt" height="68pt" viewBox="0 0 68 68" version="1.1">
<g id="surface1">
<path style=" stroke:none;fill-rule:nonzero;fill:rgb(57.647059%,24.313725%,77.254902%);fill-opacity:1;" d="M 49.648438 7.933594 C 50.53125 9.941406 51.101562 13.273438 50.25 15.714844 C 53.742188 18.699219 54.945312 25.953125 53.257812 31.878906 C 58.238281 32.261719 64.171875 31.699219 68 33.226562 C 64.421875 32.765625 59.53125 31.863281 54.914062 32.175781 C 54.039062 32.238281 52.742188 32.144531 52.804688 33.375 C 58.152344 33.792969 63.460938 34.25 67.851562 35.621094 C 63.5 34.910156 58.214844 33.828125 52.804688 33.675781 C 50.574219 38.085938 46.074219 40.253906 39.871094 40.707031 C 40.535156 42.160156 41.8125 42.714844 42.125 45.046875 C 42.589844 48.539062 41.398438 53.648438 42.574219 55.972656 C 43.140625 57.085938 44.0625 57.117188 44.683594 58.070312 C 43.164062 59.867188 39.394531 57.867188 38.964844 55.972656 C 38.230469 52.726562 40.085938 47.699219 38.0625 45.496094 C 38.207031 49.035156 37.226562 54.007812 38.214844 57.167969 C 38.605469 58.414062 39.726562 58.894531 39.417969 60.015625 C 32.351562 60.730469 35.304688 50.871094 34.148438 45.046875 C 33.085938 45.125 33.550781 46.644531 33.550781 47.292969 C 33.519531 52.976562 34.710938 60.773438 28.585938 60.015625 C 28.40625 58.820312 29.40625 58.414062 29.789062 57.324219 C 30.90625 54.125 29.578125 49.359375 30.089844 45.496094 C 27.753906 47.261719 30.335938 53.417969 28.886719 56.570312 C 28.054688 58.386719 25.363281 59.179688 23.320312 58.367188 C 23.585938 57.015625 24.984375 57.234375 25.578125 55.972656 C 26.40625 54.21875 25.582031 51.6875 25.878906 49.089844 C 21.550781 49.953125 18.191406 48.964844 16.546875 46.246094 C 15.8125 45.027344 15.632812 43.585938 14.742188 42.503906 C 13.859375 41.421875 12.445312 41.277344 12.035156 39.8125 C 17.398438 38.523438 17.601562 45.332031 22.417969 45.496094 C 23.894531 45.550781 24.660156 45.074219 26.027344 44.75 C 26.410156 43.035156 27.226562 41.753906 28.433594 40.859375 C 22.441406 40.039062 17.496094 38.171875 15.195312 33.675781 C 9.75 33.945312 4.765625 34.671875 0.148438 35.769531 C 4.339844 34.25 9.507812 33.703125 15.046875 33.523438 C 14.71875 31.5625 11.859375 32.101562 10.082031 32.179688 C 6.78125 32.324219 2.625 32.734375 0 33.226562 C 3.804688 31.871094 9.140625 32.039062 14.292969 32.027344 C 12.71875 27.085938 13.265625 19.238281 16.699219 16.316406 C 15.726562 13.859375 16.027344 9.84375 17.300781 7.933594 C 21.140625 8.105469 23.46875 9.777344 25.878906 11.375 C 28.867188 10.527344 32.011719 10.101562 36.109375 10.328125 C 37.832031 10.421875 39.621094 11.199219 40.921875 11.074219 C 42.191406 10.957031 43.597656 9.527344 44.832031 8.980469 C 46.441406 8.269531 47.804688 8 49.648438 7.933594 Z M 49.648438 7.933594 "/>
</g>
</svg>
