<?xml version="1.0" encoding="UTF-8"?>
<svg xmlns="http://www.w3.org/2000/svg" xmlns:xlink="http://www.w3.org/1999/xlink" width="68pt" height="68pt" viewBox="0 0 68 68" version="1.1">
<g id="surface1">
<path style=" stroke:none;fill-rule:nonzero;fill:rgb(0%,0%,0%);fill-opacity:1;" d="M 33.011719 4.273438 C 32.652344 4.359375 31.765625 4.792969 31.035156 5.203125 C 29.859375 5.878906 24.683594 8.871094 14.765625 14.617188 C 12.996094 15.628906 11.046875 16.765625 10.425781 17.125 C 9.117188 17.890625 8.402344 18.628906 8.03125 19.59375 C 7.785156 20.261719 7.785156 20.496094 7.785156 33.976562 C 7.785156 47.492188 7.785156 47.6875 8.042969 48.355469 C 8.414062 49.371094 9.191406 50.148438 10.660156 51 C 11.355469 51.394531 15.566406 53.828125 20.015625 56.398438 C 24.460938 58.980469 29.109375 61.648438 30.316406 62.355469 C 33.011719 63.886719 33.714844 64.082031 35.160156 63.714844 C 35.542969 63.613281 38.140625 62.191406 42.003906 59.957031 C 45.441406 57.96875 50.554688 55.015625 53.371094 53.398438 C 56.1875 51.765625 58.746094 50.210938 59.054688 49.9375 C 59.363281 49.664062 59.785156 49.121094 59.980469 48.726562 L 60.351562 47.996094 L 60.351562 19.707031 L 60.019531 19.148438 C 59.316406 17.953125 60.488281 18.679688 42.722656 8.425781 C 34.804688 3.84375 34.714844 3.804688 33.011719 4.273438 Z M 38.3125 17.285156 C 41.785156 18.074219 44.589844 19.632812 47.144531 22.175781 C 48.554688 23.585938 50.160156 25.746094 49.9375 25.96875 C 49.789062 26.117188 43.105469 30.023438 43.007812 30.023438 C 42.957031 30.023438 42.648438 29.625 42.328125 29.15625 C 41.636719 28.144531 40.410156 26.984375 39.386719 26.363281 C 36.804688 24.796875 33.828125 24.671875 31.011719 26.03125 C 30.007812 26.511719 29.675781 26.761719 28.722656 27.722656 C 27.808594 28.625 27.5 29.046875 27.082031 29.898438 C 26.191406 31.714844 25.894531 33.503906 26.191406 35.296875 C 26.660156 38.261719 28.367188 40.597656 31.035156 41.945312 C 32.503906 42.683594 33.640625 42.921875 35.371094 42.847656 C 37.71875 42.734375 39.511719 41.980469 41.179688 40.386719 L 42.019531 39.570312 L 45.191406 41.472656 C 46.933594 42.523438 48.480469 43.453125 48.617188 43.539062 C 48.851562 43.699219 48.851562 43.710938 48.492188 44.179688 C 46.847656 46.367188 44.898438 47.984375 42.402344 49.234375 C 39.84375 50.503906 37.902344 50.949219 34.839844 50.949219 C 32.554688 50.949219 31.332031 50.765625 29.515625 50.160156 C 23.820312 48.246094 19.472656 43.378906 18.136719 37.421875 C 17.765625 35.71875 17.742188 32.394531 18.085938 30.761719 C 19.558594 23.941406 24.746094 18.679688 31.332031 17.308594 C 33.097656 16.9375 33.109375 16.9375 35.273438 16.988281 C 36.65625 17.023438 37.570312 17.109375 38.3125 17.285156 Z M 49.171875 31.441406 L 49.171875 32.246094 L 51.394531 32.246094 L 51.394531 30.640625 L 53.25 30.640625 L 53.25 32.269531 L 53.988281 32.222656 L 54.730469 32.171875 L 54.730469 33.976562 L 53.25 33.976562 L 53.25 36.324219 L 54.730469 36.324219 L 54.730469 38.175781 L 53.25 38.175781 L 53.25 39.660156 L 51.394531 39.660156 L 51.394531 38.175781 L 49.183594 38.175781 L 49.148438 38.878906 L 49.109375 39.597656 L 48.21875 39.632812 L 47.316406 39.671875 L 47.316406 38.175781 L 45.835938 38.175781 L 45.835938 36.324219 L 47.316406 36.324219 L 47.316406 33.976562 L 45.835938 33.976562 L 45.835938 32.246094 L 47.316406 32.246094 L 47.316406 30.640625 L 49.171875 30.640625 Z M 49.171875 31.441406 "/>
<path style=" stroke:none;fill-rule:nonzero;fill:rgb(0%,0%,0%);fill-opacity:1;" d="M 49.171875 35.148438 L 49.171875 36.324219 L 51.394531 36.324219 L 51.394531 33.976562 L 49.171875 33.976562 Z M 49.171875 35.148438 "/>
</g>
</svg>
