<?xml version="1.0" encoding="UTF-8"?>
<svg xmlns="http://www.w3.org/2000/svg" xmlns:xlink="http://www.w3.org/1999/xlink" width="50pt" height="50pt" viewBox="0 0 50 50" version="1.1">
<g id="surface1">
<path style=" stroke:none;fill-rule:nonzero;fill:rgb(84.705882%,0%,15.294118%);fill-opacity:1;" d="M 21.527344 26.769531 L 21.476562 26.90625 C 21.386719 27.144531 21.265625 27.34375 21.113281 27.507812 C 20.960938 27.671875 20.785156 27.808594 20.589844 27.910156 C 20.394531 28.015625 20.191406 28.09375 19.980469 28.136719 C 19.367188 28.269531 18.789062 28.210938 18.324219 27.972656 C 18.019531 27.816406 17.757812 27.609375 17.546875 27.347656 C 17.335938 27.085938 17.171875 26.777344 17.0625 26.433594 C 16.949219 26.089844 16.894531 25.722656 16.894531 25.347656 C 16.894531 25.011719 16.941406 24.667969 17.039062 24.328125 C 17.136719 23.988281 17.285156 23.679688 17.480469 23.414062 C 17.675781 23.148438 17.929688 22.933594 18.234375 22.765625 C 18.679688 22.523438 19.28125 22.457031 19.960938 22.582031 C 20.175781 22.621094 20.386719 22.691406 20.585938 22.792969 C 20.785156 22.890625 20.96875 23.027344 21.132812 23.195312 C 21.292969 23.363281 21.425781 23.578125 21.523438 23.835938 L 21.582031 23.984375 L 24.160156 22.152344 L 24.109375 22.054688 C 23.707031 21.300781 23.09375 20.683594 22.277344 20.222656 C 21.464844 19.765625 20.492188 19.535156 19.386719 19.535156 C 18.464844 19.535156 17.632812 19.703125 16.910156 20.035156 C 16.191406 20.371094 15.570312 20.8125 15.066406 21.347656 C 14.5625 21.886719 14.171875 22.5 13.90625 23.179688 C 13.644531 23.855469 13.511719 24.554688 13.511719 25.253906 C 13.511719 25.984375 13.652344 26.714844 13.929688 27.421875 C 14.210938 28.128906 14.609375 28.773438 15.121094 29.328125 C 15.628906 29.886719 16.246094 30.34375 16.949219 30.679688 C 17.652344 31.019531 18.441406 31.191406 19.292969 31.191406 C 19.773438 31.191406 20.277344 31.132812 20.785156 31.015625 C 21.296875 30.898438 21.777344 30.722656 22.226562 30.496094 C 22.671875 30.269531 23.078125 29.988281 23.425781 29.652344 C 23.78125 29.316406 24.050781 28.925781 24.226562 28.5 L 24.265625 28.402344 Z M 21.527344 26.769531 "/>
<path style=" stroke:none;fill-rule:nonzero;fill:rgb(84.705882%,0%,15.294118%);fill-opacity:1;" d="M 36.265625 24.804688 L 36.265625 22.5 L 34.289062 22.5 L 35.015625 19.597656 L 32.371094 19.597656 L 31.65625 22.5 L 30.957031 22.5 L 31.6875 19.597656 L 29.042969 19.597656 L 28.328125 22.5 L 25.972656 22.5 L 25.972656 24.804688 L 27.765625 24.804688 L 27.503906 25.9375 L 25.164062 25.9375 L 25.164062 28.402344 L 26.90625 28.402344 L 26.238281 31.097656 L 28.886719 31.097656 L 29.535156 28.402344 L 30.234375 28.402344 L 29.570312 31.097656 L 32.214844 31.097656 L 32.863281 28.402344 L 35.457031 28.402344 L 35.457031 25.9375 L 33.460938 25.9375 L 33.722656 24.804688 Z M 30.832031 25.9375 L 30.132812 25.9375 L 30.390625 24.804688 L 31.09375 24.804688 Z M 30.832031 25.9375 "/>
<path style=" stroke:none;fill-rule:nonzero;fill:rgb(84.705882%,0%,15.294118%);fill-opacity:1;" d="M 25 0 C 11.214844 0 0 11.214844 0 25 C 0 38.785156 11.214844 50 25 50 C 38.785156 50 50 38.785156 50 25 C 50 11.214844 38.785156 0 25 0 Z M 25 46.339844 C 13.230469 46.339844 3.660156 36.769531 3.660156 25 C 3.660156 13.230469 13.230469 3.660156 25 3.660156 C 36.769531 3.660156 46.339844 13.230469 46.339844 25 C 46.339844 36.769531 36.769531 46.339844 25 46.339844 Z M 25 46.339844 "/>
</g>
</svg>
