<?xml version="1.0" encoding="UTF-8"?>
<svg xmlns="http://www.w3.org/2000/svg" xmlns:xlink="http://www.w3.org/1999/xlink" width="66pt" height="66pt" viewBox="0 0 66 66" version="1.1">
<g id="surface1">
<path style=" stroke:none;fill-rule:nonzero;fill:rgb(91.372549%,91.372549%,87.843137%);fill-opacity:1;" d="M 43.589844 0 L 9.386719 0 C 8.433594 0 7.660156 0.773438 7.660156 2.269531 L 7.660156 64.820312 C 7.660156 65.226562 8.433594 66 9.386719 66 L 56.613281 66 C 57.566406 66 58.339844 65.226562 58.339844 64.820312 L 58.339844 15.296875 C 58.339844 14.476562 58.230469 14.210938 58.035156 14.015625 L 44.324219 0.304688 C 44.128906 0.109375 43.863281 0 43.589844 0 Z M 43.589844 0 "/>
<path style=" stroke:none;fill-rule:nonzero;fill:rgb(85.098039%,84.313725%,79.215686%);fill-opacity:1;" d="M 44.195312 0.179688 L 44.195312 14.144531 L 58.160156 14.144531 Z M 44.195312 0.179688 "/>
<path style=" stroke:none;fill-rule:nonzero;fill:rgb(93.333333%,68.627451%,29.411765%);fill-opacity:1;" d="M 56.613281 66 L 9.386719 66 C 8.433594 66 7.660156 65.226562 7.660156 64.277344 L 7.660156 45.964844 L 58.339844 45.964844 L 58.339844 64.277344 C 58.339844 65.226562 57.566406 66 56.613281 66 Z M 56.613281 66 "/>
<path style=" stroke:none;fill-rule:nonzero;fill:rgb(100%,100%,100%);fill-opacity:1;" d="M 30.667969 50.347656 L 30.667969 59.597656 C 30.667969 60.15625 30.566406 60.625 30.359375 61.007812 C 30.15625 61.386719 29.882812 61.695312 29.539062 61.925781 C 29.195312 62.15625 28.800781 62.316406 28.355469 62.40625 C 27.910156 62.5 27.449219 62.542969 26.976562 62.542969 C 26.742188 62.542969 26.464844 62.519531 26.148438 62.472656 C 25.832031 62.421875 25.503906 62.347656 25.164062 62.246094 C 24.828125 62.144531 24.5 62.027344 24.191406 61.898438 C 23.878906 61.769531 23.613281 61.625 23.402344 61.464844 L 24.222656 60.160156 C 24.328125 60.234375 24.484375 60.3125 24.683594 60.394531 C 24.878906 60.472656 25.097656 60.550781 25.335938 60.617188 C 25.570312 60.6875 25.816406 60.75 26.074219 60.804688 C 26.335938 60.859375 26.574219 60.882812 26.800781 60.882812 C 27.367188 60.882812 27.824219 60.773438 28.160156 60.554688 C 28.5 60.335938 28.679688 59.960938 28.703125 59.433594 L 28.703125 50.347656 Z M 30.667969 50.347656 "/>
<path style=" stroke:none;fill-rule:nonzero;fill:rgb(100%,100%,100%);fill-opacity:1;" d="M 40.289062 59.210938 C 40.289062 59.636719 40.199219 60.054688 40.023438 60.457031 C 39.84375 60.863281 39.59375 61.214844 39.273438 61.519531 C 38.949219 61.828125 38.550781 62.070312 38.078125 62.253906 C 37.605469 62.4375 37.070312 62.527344 36.46875 62.527344 C 36.210938 62.527344 35.945312 62.515625 35.671875 62.488281 C 35.394531 62.460938 35.117188 62.414062 34.839844 62.351562 C 34.5625 62.285156 34.296875 62.199219 34.042969 62.085938 C 33.789062 61.972656 33.574219 61.835938 33.390625 61.671875 L 33.726562 60.289062 C 33.878906 60.375 34.070312 60.457031 34.300781 60.539062 C 34.53125 60.617188 34.769531 60.691406 35.015625 60.761719 C 35.261719 60.832031 35.511719 60.886719 35.757812 60.933594 C 36.003906 60.972656 36.234375 60.996094 36.449219 60.996094 C 37.105469 60.996094 37.609375 60.84375 37.957031 60.539062 C 38.304688 60.230469 38.480469 59.777344 38.480469 59.175781 C 38.480469 58.8125 38.355469 58.5 38.109375 58.242188 C 37.863281 57.984375 37.554688 57.75 37.183594 57.539062 C 36.8125 57.332031 36.414062 57.121094 35.984375 56.910156 C 35.554688 56.703125 35.148438 56.453125 34.773438 56.171875 C 34.398438 55.886719 34.085938 55.550781 33.839844 55.164062 C 33.59375 54.777344 33.46875 54.292969 33.46875 53.714844 C 33.46875 53.1875 33.566406 52.722656 33.761719 52.3125 C 33.953125 51.90625 34.214844 51.558594 34.542969 51.273438 C 34.871094 50.988281 35.25 50.773438 35.6875 50.621094 C 36.121094 50.46875 36.582031 50.394531 37.0625 50.394531 C 37.558594 50.394531 38.058594 50.441406 38.5625 50.53125 C 39.066406 50.625 39.472656 50.773438 39.785156 50.976562 C 39.722656 51.113281 39.644531 51.269531 39.5625 51.433594 C 39.476562 51.601562 39.394531 51.757812 39.320312 51.902344 C 39.242188 52.046875 39.179688 52.167969 39.125 52.265625 C 39.070312 52.363281 39.039062 52.414062 39.03125 52.425781 C 38.964844 52.394531 38.894531 52.351562 38.8125 52.296875 C 38.730469 52.242188 38.613281 52.191406 38.464844 52.136719 C 38.3125 52.082031 38.113281 52.046875 37.867188 52.023438 C 37.621094 52 37.304688 52.007812 36.917969 52.039062 C 36.703125 52.0625 36.5 52.121094 36.304688 52.226562 C 36.109375 52.328125 35.9375 52.453125 35.789062 52.601562 C 35.636719 52.753906 35.519531 52.921875 35.433594 53.109375 C 35.347656 53.296875 35.304688 53.480469 35.304688 53.652344 C 35.304688 54.078125 35.429688 54.425781 35.675781 54.691406 C 35.921875 54.953125 36.226562 55.183594 36.59375 55.382812 C 36.957031 55.582031 37.355469 55.777344 37.785156 55.964844 C 38.214844 56.152344 38.617188 56.378906 38.988281 56.648438 C 39.359375 56.914062 39.664062 57.253906 39.914062 57.65625 C 40.164062 58.058594 40.289062 58.574219 40.289062 59.210938 Z M 40.289062 59.210938 "/>
<path style=" stroke:none;fill-rule:nonzero;fill:rgb(93.333333%,68.627451%,29.411765%);fill-opacity:1;" d="M 22.980469 22.394531 L 22.980469 17.679688 C 22.980469 17.027344 23.511719 16.5 24.160156 16.5 C 24.8125 16.5 25.339844 15.972656 25.339844 15.320312 C 25.339844 14.671875 24.8125 14.144531 24.160156 14.144531 C 22.210938 14.144531 20.625 15.730469 20.625 17.679688 L 20.625 22.394531 C 20.625 23.691406 19.566406 24.75 18.269531 24.75 C 17.617188 24.75 17.089844 25.277344 17.089844 25.929688 C 17.089844 26.578125 17.617188 27.105469 18.269531 27.105469 C 19.566406 27.105469 20.625 28.164062 20.625 29.464844 L 20.625 34.179688 C 20.625 36.128906 22.210938 37.714844 24.160156 37.714844 C 24.8125 37.714844 25.339844 37.1875 25.339844 36.535156 C 25.339844 35.886719 24.8125 35.355469 24.160156 35.355469 C 23.511719 35.355469 22.980469 34.828125 22.980469 34.179688 L 22.980469 29.464844 C 22.980469 28.050781 22.34375 26.792969 21.351562 25.929688 C 22.34375 25.0625 22.980469 23.808594 22.980469 22.394531 Z M 22.980469 22.394531 "/>
<path style=" stroke:none;fill-rule:nonzero;fill:rgb(93.333333%,68.627451%,29.411765%);fill-opacity:1;" d="M 34.179688 21.804688 C 34.179688 22.78125 33.386719 23.570312 32.410156 23.570312 C 31.433594 23.570312 30.644531 22.78125 30.644531 21.804688 C 30.644531 20.828125 31.433594 20.035156 32.410156 20.035156 C 33.386719 20.035156 34.179688 20.828125 34.179688 21.804688 Z M 34.179688 21.804688 "/>
<path style=" stroke:none;fill-rule:nonzero;fill:rgb(93.333333%,68.627451%,29.411765%);fill-opacity:1;" d="M 46.554688 24.75 C 45.253906 24.75 44.195312 23.691406 44.195312 22.394531 L 44.195312 17.679688 C 44.195312 15.730469 42.609375 14.144531 40.660156 14.144531 C 40.007812 14.144531 39.480469 14.671875 39.480469 15.320312 C 39.480469 15.972656 40.007812 16.5 40.660156 16.5 C 41.3125 16.5 41.839844 17.027344 41.839844 17.679688 L 41.839844 22.394531 C 41.839844 23.808594 42.476562 25.0625 43.46875 25.929688 C 42.476562 26.792969 41.839844 28.050781 41.839844 29.464844 L 41.839844 34.179688 C 41.839844 34.828125 41.3125 35.355469 40.660156 35.355469 C 40.007812 35.355469 39.480469 35.886719 39.480469 36.535156 C 39.480469 37.1875 40.007812 37.714844 40.660156 37.714844 C 42.609375 37.714844 44.195312 36.128906 44.195312 34.179688 L 44.195312 29.464844 C 44.195312 28.164062 45.253906 27.105469 46.554688 27.105469 C 47.207031 27.105469 47.730469 26.578125 47.730469 25.929688 C 47.730469 25.277344 47.207031 24.75 46.554688 24.75 Z M 46.554688 24.75 "/>
<path style=" stroke:none;fill-rule:nonzero;fill:rgb(93.333333%,68.627451%,29.411765%);fill-opacity:1;" d="M 32.410156 28.285156 C 31.757812 28.285156 31.230469 28.8125 31.230469 29.464844 L 31.230469 33 C 31.230469 33.652344 31.757812 34.179688 32.410156 34.179688 C 33.0625 34.179688 33.589844 33.652344 33.589844 33 L 33.589844 29.464844 C 33.589844 28.8125 33.0625 28.285156 32.410156 28.285156 Z M 32.410156 28.285156 "/>
</g>
</svg>
