<?xml version="1.0" encoding="UTF-8"?>
<svg xmlns="http://www.w3.org/2000/svg" xmlns:xlink="http://www.w3.org/1999/xlink" width="32pt" height="32pt" viewBox="0 0 32 32" version="1.1">
<g id="surface1">
<path style=" stroke:none;fill-rule:nonzero;fill:rgb(89.019608%,90.588235%,94.901961%);fill-opacity:1;" d="M 26.132812 0.539062 L 23.46875 1.605469 L 21.867188 0.539062 L 18.667969 1.605469 L 16.003906 0.539062 L 13.335938 1.605469 L 9.605469 0.539062 L 8.003906 1.605469 L 5.871094 0.539062 L 5.871094 14.402344 L 26.132812 14.402344 Z M 26.132812 0.539062 "/>
<path style=" stroke:none;fill-rule:nonzero;fill:rgb(89.019608%,90.588235%,94.901961%);fill-opacity:1;" d="M 26.132812 0.539062 L 26.132812 14.402344 L 24.535156 14.402344 L 24.535156 1.179688 Z M 26.132812 0.539062 "/>
<path style=" stroke:none;fill-rule:nonzero;fill:rgb(89.019608%,90.588235%,94.901961%);fill-opacity:1;" d="M 8.539062 12.269531 L 11.738281 12.269531 C 12.03125 12.269531 12.269531 12.507812 12.269531 12.804688 L 12.269531 14.402344 L 8.003906 14.402344 L 8.003906 12.804688 C 8.003906 12.507812 8.242188 12.269531 8.539062 12.269531 Z M 8.539062 12.269531 "/>
<path style=" stroke:none;fill-rule:nonzero;fill:rgb(64.313725%,76.078431%,96.862745%);fill-opacity:1;" d="M 1.074219 14.402344 L 30.933594 14.402344 C 31.226562 14.402344 31.464844 14.644531 31.464844 14.9375 L 31.464844 17.070312 C 31.464844 17.363281 31.226562 17.601562 30.933594 17.601562 L 1.074219 17.601562 C 0.777344 17.601562 0.539062 17.363281 0.539062 17.070312 L 0.539062 14.9375 C 0.539062 14.644531 0.777344 14.402344 1.074219 14.402344 Z M 1.074219 14.402344 "/>
<path style=" stroke:none;fill-rule:nonzero;fill:rgb(89.019608%,90.588235%,94.901961%);fill-opacity:1;" d="M 1.074219 14.402344 L 29.332031 14.402344 C 29.628906 14.402344 29.867188 14.644531 29.867188 14.9375 L 29.867188 17.070312 C 29.867188 17.363281 29.628906 17.601562 29.332031 17.601562 L 1.074219 17.601562 C 0.777344 17.601562 0.539062 17.363281 0.539062 17.070312 L 0.539062 14.9375 C 0.539062 14.644531 0.777344 14.402344 1.074219 14.402344 Z M 1.074219 14.402344 "/>
<path style=" stroke:none;fill-rule:nonzero;fill:rgb(89.019608%,90.588235%,94.901961%);fill-opacity:1;" d="M 3.738281 14.402344 L 28.265625 14.402344 L 28.265625 17.601562 L 3.738281 17.601562 Z M 3.738281 14.402344 "/>
<path style=" stroke:none;fill-rule:nonzero;fill:rgb(100%,100%,100%);fill-opacity:1;" d="M 7.472656 1.339844 L 5.871094 0.539062 L 5.871094 14.402344 L 7.472656 14.402344 Z M 7.472656 1.339844 "/>
<path style=" stroke:none;fill-rule:nonzero;fill:rgb(100%,100%,100%);fill-opacity:1;" d="M 1.074219 17.601562 L 2.671875 17.601562 C 2.378906 17.601562 2.140625 17.363281 2.140625 17.070312 L 2.140625 14.9375 C 2.140625 14.644531 2.378906 14.402344 2.671875 14.402344 L 1.074219 14.402344 C 0.777344 14.402344 0.539062 14.644531 0.539062 14.9375 L 0.539062 17.070312 C 0.539062 17.363281 0.777344 17.601562 1.074219 17.601562 Z M 1.074219 17.601562 "/>
<path style=" stroke:none;fill-rule:nonzero;fill:rgb(25.882353%,55.294118%,100%);fill-opacity:1;" d="M 30.933594 18.136719 L 1.074219 18.136719 C 0.484375 18.136719 0.0078125 17.660156 0.0078125 17.070312 L 0.0078125 14.9375 C 0.0078125 14.347656 0.484375 13.871094 1.074219 13.871094 L 30.933594 13.871094 C 31.523438 13.871094 32 14.347656 32 14.9375 L 32 17.070312 C 32 17.660156 31.523438 18.136719 30.933594 18.136719 Z M 1.074219 14.9375 L 1.074219 17.070312 L 30.933594 17.070312 L 30.933594 14.9375 Z M 1.074219 14.9375 "/>
<path style=" stroke:none;fill-rule:nonzero;fill:rgb(25.882353%,55.294118%,100%);fill-opacity:1;" d="M 3.738281 18.136719 C 3.445312 18.136719 3.207031 17.898438 3.207031 17.601562 L 3.207031 14.402344 C 3.207031 14.109375 3.445312 13.871094 3.738281 13.871094 C 4.035156 13.871094 4.273438 14.109375 4.273438 14.402344 L 4.273438 17.601562 C 4.273438 17.898438 4.035156 18.136719 3.738281 18.136719 Z M 3.738281 18.136719 "/>
<path style=" stroke:none;fill-rule:nonzero;fill:rgb(25.882353%,55.294118%,100%);fill-opacity:1;" d="M 28.265625 18.136719 C 27.972656 18.136719 27.734375 17.898438 27.734375 17.601562 L 27.734375 14.402344 C 27.734375 14.109375 27.972656 13.871094 28.265625 13.871094 C 28.5625 13.871094 28.800781 14.109375 28.800781 14.402344 L 28.800781 17.601562 C 28.800781 17.898438 28.5625 18.136719 28.265625 18.136719 Z M 28.265625 18.136719 "/>
<path style=" stroke:none;fill-rule:nonzero;fill:rgb(100%,100%,100%);fill-opacity:1;" d="M 5.339844 14.402344 L 5.339844 0.539062 L 6.40625 0.539062 L 6.40625 14.402344 Z M 5.339844 14.402344 "/>
<path style=" stroke:none;fill-rule:nonzero;fill:rgb(25.882353%,55.294118%,100%);fill-opacity:1;" d="M 5.871094 11.738281 C 5.578125 11.738281 5.339844 11.976562 5.339844 12.269531 L 5.339844 14.402344 L 6.40625 14.402344 L 6.40625 12.269531 C 6.40625 11.976562 6.167969 11.738281 5.871094 11.738281 Z M 5.871094 11.738281 "/>
<path style=" stroke:none;fill-rule:nonzero;fill:rgb(25.882353%,55.294118%,100%);fill-opacity:1;" d="M 6.40625 0.539062 L 5.339844 0.539062 L 5.339844 8.003906 C 5.339844 8.300781 5.578125 8.539062 5.871094 8.539062 C 6.167969 8.539062 6.40625 8.300781 6.40625 8.003906 Z M 6.40625 0.539062 "/>
<path style=" stroke:none;fill-rule:nonzero;fill:rgb(25.882353%,55.294118%,100%);fill-opacity:1;" d="M 5.339844 10.136719 C 5.339844 10.277344 5.394531 10.414062 5.492188 10.515625 L 5.574219 10.582031 C 5.601562 10.601562 5.636719 10.617188 5.667969 10.628906 C 5.699219 10.644531 5.730469 10.65625 5.765625 10.660156 C 5.800781 10.667969 5.835938 10.671875 5.871094 10.671875 C 6.011719 10.667969 6.148438 10.613281 6.25 10.515625 C 6.296875 10.464844 6.335938 10.40625 6.363281 10.339844 C 6.441406 10.140625 6.398438 9.914062 6.25 9.757812 C 6.199219 9.710938 6.140625 9.671875 6.074219 9.648438 C 6.011719 9.621094 5.941406 9.605469 5.871094 9.605469 C 5.730469 9.605469 5.59375 9.660156 5.492188 9.757812 C 5.394531 9.859375 5.335938 9.996094 5.339844 10.136719 Z M 5.339844 10.136719 "/>
<path style=" stroke:none;fill-rule:nonzero;fill:rgb(25.882353%,55.294118%,100%);fill-opacity:1;" d="M 26.132812 14.9375 L 5.871094 14.9375 C 5.578125 14.9375 5.339844 14.699219 5.339844 14.402344 C 5.339844 14.109375 5.578125 13.871094 5.871094 13.871094 L 25.601562 13.871094 L 25.601562 1.328125 L 23.667969 2.101562 C 23.503906 2.167969 23.320312 2.148438 23.171875 2.046875 L 21.789062 1.125 L 18.839844 2.113281 C 18.71875 2.152344 18.589844 2.148438 18.472656 2.101562 L 16.003906 1.113281 L 13.535156 2.101562 C 13.425781 2.144531 13.304688 2.152344 13.191406 2.117188 L 9.695312 1.121094 L 8.300781 2.050781 C 8.140625 2.15625 7.9375 2.167969 7.769531 2.082031 L 5.636719 1.015625 C 5.371094 0.886719 5.265625 0.566406 5.394531 0.300781 C 5.527344 0.0390625 5.847656 -0.0703125 6.113281 0.0625 L 7.96875 0.992188 L 9.308594 0.0976562 C 9.4375 0.0078125 9.601562 -0.015625 9.75 0.0273438 L 13.308594 1.042969 L 15.804688 0.0429688 C 15.933594 -0.00390625 16.074219 -0.00390625 16.203125 0.0429688 L 18.6875 1.039062 L 21.699219 0.0351562 C 21.855469 -0.0195312 22.027344 0.00390625 22.164062 0.0976562 L 23.53125 1.007812 L 25.9375 0.046875 C 26.101562 -0.0195312 26.285156 0 26.433594 0.101562 C 26.578125 0.199219 26.667969 0.363281 26.667969 0.539062 L 26.667969 14.402344 C 26.667969 14.699219 26.429688 14.9375 26.132812 14.9375 Z M 26.132812 14.9375 "/>
<path style=" stroke:none;fill-rule:nonzero;fill:rgb(25.882353%,55.294118%,100%);fill-opacity:1;" d="M 14.9375 4.273438 L 8.003906 4.273438 C 7.710938 4.273438 7.472656 4.035156 7.472656 3.738281 C 7.472656 3.445312 7.710938 3.207031 8.003906 3.207031 L 14.9375 3.207031 C 15.230469 3.207031 15.46875 3.445312 15.46875 3.738281 C 15.46875 4.035156 15.230469 4.273438 14.9375 4.273438 Z M 14.9375 4.273438 "/>
<path style=" stroke:none;fill-rule:nonzero;fill:rgb(25.882353%,55.294118%,100%);fill-opacity:1;" d="M 14.9375 6.40625 L 8.003906 6.40625 C 7.710938 6.40625 7.472656 6.167969 7.472656 5.871094 C 7.472656 5.578125 7.710938 5.339844 8.003906 5.339844 L 14.9375 5.339844 C 15.230469 5.339844 15.46875 5.578125 15.46875 5.871094 C 15.46875 6.167969 15.230469 6.40625 14.9375 6.40625 Z M 14.9375 6.40625 "/>
<path style=" stroke:none;fill-rule:nonzero;fill:rgb(25.882353%,55.294118%,100%);fill-opacity:1;" d="M 24 4.273438 L 17.070312 4.273438 C 16.773438 4.273438 16.535156 4.035156 16.535156 3.738281 C 16.535156 3.445312 16.773438 3.207031 17.070312 3.207031 L 24 3.207031 C 24.296875 3.207031 24.535156 3.445312 24.535156 3.738281 C 24.535156 4.035156 24.296875 4.273438 24 4.273438 Z M 24 4.273438 "/>
<path style=" stroke:none;fill-rule:nonzero;fill:rgb(25.882353%,55.294118%,100%);fill-opacity:1;" d="M 24 6.40625 L 17.070312 6.40625 C 16.773438 6.40625 16.535156 6.167969 16.535156 5.871094 C 16.535156 5.578125 16.773438 5.339844 17.070312 5.339844 L 24 5.339844 C 24.296875 5.339844 24.535156 5.578125 24.535156 5.871094 C 24.535156 6.167969 24.296875 6.40625 24 6.40625 Z M 24 6.40625 "/>
<path style=" stroke:none;fill-rule:nonzero;fill:rgb(25.882353%,55.294118%,100%);fill-opacity:1;" d="M 24 8.539062 L 8.003906 8.539062 C 7.710938 8.539062 7.472656 8.300781 7.472656 8.003906 C 7.472656 7.710938 7.710938 7.472656 8.003906 7.472656 L 24 7.472656 C 24.296875 7.472656 24.535156 7.710938 24.535156 8.003906 C 24.535156 8.300781 24.296875 8.539062 24 8.539062 Z M 24 8.539062 "/>
<path style=" stroke:none;fill-rule:nonzero;fill:rgb(25.882353%,55.294118%,100%);fill-opacity:1;" d="M 24 10.671875 L 8.003906 10.671875 C 7.710938 10.671875 7.472656 10.433594 7.472656 10.136719 C 7.472656 9.84375 7.710938 9.605469 8.003906 9.605469 L 24 9.605469 C 24.296875 9.605469 24.535156 9.84375 24.535156 10.136719 C 24.535156 10.433594 24.296875 10.671875 24 10.671875 Z M 24 10.671875 "/>
<path style=" stroke:none;fill-rule:nonzero;fill:rgb(25.882353%,55.294118%,100%);fill-opacity:1;" d="M 24 12.804688 L 14.402344 12.804688 C 14.109375 12.804688 13.871094 12.566406 13.871094 12.269531 C 13.871094 11.976562 14.109375 11.738281 14.402344 11.738281 L 24 11.738281 C 24.296875 11.738281 24.535156 11.976562 24.535156 12.269531 C 24.535156 12.566406 24.296875 12.804688 24 12.804688 Z M 24 12.804688 "/>
<path style=" stroke:none;fill-rule:nonzero;fill:rgb(25.882353%,55.294118%,100%);fill-opacity:1;" d="M 12.269531 14.9375 L 8.003906 14.9375 C 7.710938 14.9375 7.472656 14.699219 7.472656 14.402344 L 7.472656 12.804688 C 7.472656 12.214844 7.949219 11.738281 8.539062 11.738281 L 11.738281 11.738281 C 12.328125 11.738281 12.804688 12.214844 12.804688 12.804688 L 12.804688 14.402344 C 12.804688 14.699219 12.566406 14.9375 12.269531 14.9375 Z M 8.539062 13.871094 L 11.738281 13.871094 L 11.738281 12.804688 L 8.539062 12.804688 Z M 8.539062 13.871094 "/>
<path style=" stroke:none;fill-rule:nonzero;fill:rgb(25.882353%,55.294118%,100%);fill-opacity:1;" d="M 25.066406 26.667969 L 24 26.667969 C 23.414062 26.667969 22.933594 26.191406 22.933594 25.601562 L 22.933594 23.46875 C 22.933594 22.878906 23.414062 22.402344 24 22.402344 L 25.066406 22.402344 C 25.65625 22.402344 26.132812 22.878906 26.132812 23.46875 L 26.132812 25.601562 C 26.132812 26.191406 25.65625 26.667969 25.066406 26.667969 Z M 24 23.46875 L 24 25.601562 L 25.066406 25.601562 L 25.066406 23.46875 Z M 24 23.46875 "/>
<path style=" stroke:none;fill-rule:nonzero;fill:rgb(25.882353%,55.294118%,100%);fill-opacity:1;" d="M 14.9375 26.667969 C 14.640625 26.667969 14.402344 26.429688 14.402344 26.136719 L 14.402344 22.9375 C 14.402344 22.640625 14.640625 22.402344 14.9375 22.402344 C 15.230469 22.402344 15.46875 22.640625 15.46875 22.9375 L 15.46875 26.136719 C 15.46875 26.429688 15.230469 26.667969 14.9375 26.667969 Z M 14.9375 26.667969 "/>
<path style=" stroke:none;fill-rule:nonzero;fill:rgb(25.882353%,55.294118%,100%);fill-opacity:1;" d="M 12.804688 26.667969 C 12.507812 26.667969 12.269531 26.429688 12.269531 26.136719 L 12.269531 22.9375 C 12.269531 22.640625 12.507812 22.402344 12.804688 22.402344 C 13.097656 22.402344 13.335938 22.640625 13.335938 22.9375 L 13.335938 26.136719 C 13.335938 26.429688 13.097656 26.667969 12.804688 26.667969 Z M 12.804688 26.667969 "/>
<path style=" stroke:none;fill-rule:nonzero;fill:rgb(25.882353%,55.294118%,100%);fill-opacity:1;" d="M 17.070312 26.667969 C 16.773438 26.667969 16.535156 26.429688 16.535156 26.136719 L 16.535156 22.9375 C 16.535156 22.640625 16.773438 22.402344 17.070312 22.402344 C 17.363281 22.402344 17.601562 22.640625 17.601562 22.9375 L 17.601562 26.136719 C 17.601562 26.429688 17.363281 26.667969 17.070312 26.667969 Z M 17.070312 26.667969 "/>
<path style=" stroke:none;fill-rule:nonzero;fill:rgb(25.882353%,55.294118%,100%);fill-opacity:1;" d="M 6.40625 26.667969 C 6.109375 26.667969 5.871094 26.429688 5.871094 26.136719 L 5.871094 22.9375 C 5.871094 22.640625 6.109375 22.402344 6.40625 22.402344 C 6.699219 22.402344 6.9375 22.640625 6.9375 22.9375 L 6.9375 26.136719 C 6.9375 26.429688 6.699219 26.667969 6.40625 26.667969 Z M 6.40625 26.667969 "/>
<path style=" stroke:none;fill-rule:nonzero;fill:rgb(25.882353%,55.294118%,100%);fill-opacity:1;" d="M 6.40625 26.667969 C 6.109375 26.667969 5.871094 26.429688 5.871094 26.136719 L 5.871094 22.9375 C 5.871094 22.640625 6.109375 22.402344 6.40625 22.402344 C 6.699219 22.402344 6.9375 22.640625 6.9375 22.9375 L 6.9375 26.136719 C 6.9375 26.429688 6.699219 26.667969 6.40625 26.667969 Z M 6.40625 26.667969 "/>
<path style=" stroke:none;fill-rule:nonzero;fill:rgb(25.882353%,55.294118%,100%);fill-opacity:1;" d="M 10.136719 26.667969 L 9.070312 26.667969 C 8.480469 26.667969 8.003906 26.191406 8.003906 25.601562 L 8.003906 23.46875 C 8.003906 22.878906 8.480469 22.402344 9.070312 22.402344 L 10.136719 22.402344 C 10.726562 22.402344 11.203125 22.878906 11.203125 23.46875 L 11.203125 25.601562 C 11.203125 26.191406 10.726562 26.667969 10.136719 26.667969 Z M 9.070312 23.46875 L 9.070312 25.601562 L 10.136719 25.601562 L 10.136719 23.46875 Z M 9.070312 23.46875 "/>
<path style=" stroke:none;fill-rule:nonzero;fill:rgb(25.882353%,55.294118%,100%);fill-opacity:1;" d="M 20.800781 26.667969 L 19.734375 26.667969 C 19.148438 26.667969 18.667969 26.191406 18.667969 25.601562 L 18.667969 23.46875 C 18.667969 22.878906 19.148438 22.402344 19.734375 22.402344 L 20.800781 22.402344 C 21.390625 22.402344 21.867188 22.878906 21.867188 23.46875 L 21.867188 25.601562 C 21.867188 26.191406 21.390625 26.667969 20.800781 26.667969 Z M 19.734375 23.46875 L 19.734375 25.601562 L 20.800781 25.601562 L 20.800781 23.46875 Z M 19.734375 23.46875 "/>
<path style=" stroke:none;fill-rule:nonzero;fill:rgb(25.882353%,55.294118%,100%);fill-opacity:1;" d="M 8.003906 21.335938 L 6.9375 21.335938 C 6.347656 21.335938 5.871094 20.859375 5.871094 20.269531 L 5.871094 17.601562 C 5.871094 17.308594 6.109375 17.070312 6.40625 17.070312 C 6.699219 17.070312 6.9375 17.308594 6.9375 17.601562 L 6.9375 20.269531 L 8.003906 20.269531 L 8.003906 17.601562 C 8.003906 17.308594 8.242188 17.070312 8.539062 17.070312 C 8.832031 17.070312 9.070312 17.308594 9.070312 17.601562 L 9.070312 20.269531 C 9.070312 20.859375 8.59375 21.335938 8.003906 21.335938 Z M 8.003906 21.335938 "/>
<path style=" stroke:none;fill-rule:nonzero;fill:rgb(25.882353%,55.294118%,100%);fill-opacity:1;" d="M 17.070312 21.335938 C 16.773438 21.335938 16.535156 21.097656 16.535156 20.800781 L 16.535156 17.601562 C 16.535156 17.308594 16.773438 17.070312 17.070312 17.070312 C 17.363281 17.070312 17.601562 17.308594 17.601562 17.601562 L 17.601562 20.800781 C 17.601562 21.097656 17.363281 21.335938 17.070312 21.335938 Z M 17.070312 21.335938 "/>
<path style=" stroke:none;fill-rule:nonzero;fill:rgb(25.882353%,55.294118%,100%);fill-opacity:1;" d="M 19.203125 21.335938 C 18.910156 21.335938 18.667969 21.097656 18.667969 20.800781 L 18.667969 17.601562 C 18.667969 17.308594 18.910156 17.070312 19.203125 17.070312 C 19.496094 17.070312 19.734375 17.308594 19.734375 17.601562 L 19.734375 20.800781 C 19.734375 21.097656 19.496094 21.335938 19.203125 21.335938 Z M 19.203125 21.335938 "/>
<path style=" stroke:none;fill-rule:nonzero;fill:rgb(25.882353%,55.294118%,100%);fill-opacity:1;" d="M 14.9375 21.335938 C 14.640625 21.335938 14.402344 21.097656 14.402344 20.800781 L 14.402344 17.601562 C 14.402344 17.308594 14.640625 17.070312 14.9375 17.070312 C 15.230469 17.070312 15.46875 17.308594 15.46875 17.601562 L 15.46875 20.800781 C 15.46875 21.097656 15.230469 21.335938 14.9375 21.335938 Z M 14.9375 21.335938 "/>
<path style=" stroke:none;fill-rule:nonzero;fill:rgb(25.882353%,55.294118%,100%);fill-opacity:1;" d="M 25.601562 21.335938 C 25.308594 21.335938 25.066406 21.097656 25.066406 20.800781 L 25.066406 17.601562 C 25.066406 17.308594 25.308594 17.070312 25.601562 17.070312 C 25.894531 17.070312 26.132812 17.308594 26.132812 17.601562 L 26.132812 20.800781 C 26.132812 21.097656 25.894531 21.335938 25.601562 21.335938 Z M 25.601562 21.335938 "/>
<path style=" stroke:none;fill-rule:nonzero;fill:rgb(25.882353%,55.294118%,100%);fill-opacity:1;" d="M 25.601562 21.335938 C 25.308594 21.335938 25.066406 21.097656 25.066406 20.800781 L 25.066406 17.601562 C 25.066406 17.308594 25.308594 17.070312 25.601562 17.070312 C 25.894531 17.070312 26.132812 17.308594 26.132812 17.601562 L 26.132812 20.800781 C 26.132812 21.097656 25.894531 21.335938 25.601562 21.335938 Z M 25.601562 21.335938 "/>
<path style=" stroke:none;fill-rule:nonzero;fill:rgb(25.882353%,55.294118%,100%);fill-opacity:1;" d="M 22.933594 21.335938 L 21.867188 21.335938 C 21.28125 21.335938 20.800781 20.859375 20.800781 20.269531 L 20.800781 17.601562 C 20.800781 17.308594 21.042969 17.070312 21.335938 17.070312 C 21.628906 17.070312 21.867188 17.308594 21.867188 17.601562 L 21.867188 20.269531 L 22.933594 20.269531 L 22.933594 17.601562 C 22.933594 17.308594 23.175781 17.070312 23.46875 17.070312 C 23.761719 17.070312 24 17.308594 24 17.601562 L 24 20.269531 C 24 20.859375 23.523438 21.335938 22.933594 21.335938 Z M 22.933594 21.335938 "/>
<path style=" stroke:none;fill-rule:nonzero;fill:rgb(25.882353%,55.294118%,100%);fill-opacity:1;" d="M 12.269531 21.335938 L 11.203125 21.335938 C 10.617188 21.335938 10.136719 20.859375 10.136719 20.269531 L 10.136719 17.601562 C 10.136719 17.308594 10.375 17.070312 10.671875 17.070312 C 10.964844 17.070312 11.203125 17.308594 11.203125 17.601562 L 11.203125 20.269531 L 12.269531 20.269531 L 12.269531 17.601562 C 12.269531 17.308594 12.507812 17.070312 12.804688 17.070312 C 13.097656 17.070312 13.335938 17.308594 13.335938 17.601562 L 13.335938 20.269531 C 13.335938 20.859375 12.859375 21.335938 12.269531 21.335938 Z M 12.269531 21.335938 "/>
<path style=" stroke:none;fill-rule:nonzero;fill:rgb(25.882353%,55.294118%,100%);fill-opacity:1;" d="M 8.003906 32 L 6.9375 32 C 6.347656 32 5.871094 31.523438 5.871094 30.933594 L 5.871094 28.800781 C 5.871094 28.210938 6.347656 27.734375 6.9375 27.734375 L 8.003906 27.734375 C 8.59375 27.734375 9.070312 28.210938 9.070312 28.800781 L 9.070312 30.933594 C 9.070312 31.523438 8.59375 32 8.003906 32 Z M 6.9375 28.800781 L 6.9375 30.933594 L 8.003906 30.933594 L 8.003906 28.800781 Z M 6.9375 28.800781 "/>
<path style=" stroke:none;fill-rule:nonzero;fill:rgb(25.882353%,55.294118%,100%);fill-opacity:1;" d="M 19.203125 32 C 18.910156 32 18.667969 31.761719 18.667969 31.46875 L 18.667969 28.269531 C 18.667969 27.972656 18.910156 27.734375 19.203125 27.734375 C 19.496094 27.734375 19.734375 27.972656 19.734375 28.269531 L 19.734375 31.46875 C 19.734375 31.761719 19.496094 32 19.203125 32 Z M 19.203125 32 "/>
<path style=" stroke:none;fill-rule:nonzero;fill:rgb(25.882353%,55.294118%,100%);fill-opacity:1;" d="M 12.804688 32 C 12.507812 32 12.269531 31.761719 12.269531 31.46875 L 12.269531 28.269531 C 12.269531 27.972656 12.507812 27.734375 12.804688 27.734375 C 13.097656 27.734375 13.335938 27.972656 13.335938 28.269531 L 13.335938 31.46875 C 13.335938 31.761719 13.097656 32 12.804688 32 Z M 12.804688 32 "/>
<path style=" stroke:none;fill-rule:nonzero;fill:rgb(25.882353%,55.294118%,100%);fill-opacity:1;" d="M 10.671875 32 C 10.375 32 10.136719 31.761719 10.136719 31.46875 L 10.136719 28.269531 C 10.136719 27.972656 10.375 27.734375 10.671875 27.734375 C 10.964844 27.734375 11.203125 27.972656 11.203125 28.269531 L 11.203125 31.46875 C 11.203125 31.761719 10.964844 32 10.671875 32 Z M 10.671875 32 "/>
<path style=" stroke:none;fill-rule:nonzero;fill:rgb(25.882353%,55.294118%,100%);fill-opacity:1;" d="M 25.601562 32 C 25.308594 32 25.066406 31.761719 25.066406 31.46875 L 25.066406 28.269531 C 25.066406 27.972656 25.308594 27.734375 25.601562 27.734375 C 25.894531 27.734375 26.132812 27.972656 26.132812 28.269531 L 26.132812 31.46875 C 26.132812 31.761719 25.894531 32 25.601562 32 Z M 25.601562 32 "/>
<path style=" stroke:none;fill-rule:nonzero;fill:rgb(25.882353%,55.294118%,100%);fill-opacity:1;" d="M 25.601562 32 C 25.308594 32 25.066406 31.761719 25.066406 31.46875 L 25.066406 28.269531 C 25.066406 27.972656 25.308594 27.734375 25.601562 27.734375 C 25.894531 27.734375 26.132812 27.972656 26.132812 28.269531 L 26.132812 31.46875 C 26.132812 31.761719 25.894531 32 25.601562 32 Z M 25.601562 32 "/>
<path style=" stroke:none;fill-rule:nonzero;fill:rgb(25.882353%,55.294118%,100%);fill-opacity:1;" d="M 22.933594 32 L 21.867188 32 C 21.28125 32 20.800781 31.523438 20.800781 30.933594 L 20.800781 28.800781 C 20.800781 28.210938 21.28125 27.734375 21.867188 27.734375 L 22.933594 27.734375 C 23.523438 27.734375 24 28.210938 24 28.800781 L 24 30.933594 C 24 31.523438 23.523438 32 22.933594 32 Z M 21.867188 28.800781 L 21.867188 30.933594 L 22.933594 30.933594 L 22.933594 28.800781 Z M 21.867188 28.800781 "/>
<path style=" stroke:none;fill-rule:nonzero;fill:rgb(25.882353%,55.294118%,100%);fill-opacity:1;" d="M 16.535156 32 L 15.46875 32 C 14.882812 32 14.402344 31.523438 14.402344 30.933594 L 14.402344 28.800781 C 14.402344 28.210938 14.882812 27.734375 15.46875 27.734375 L 16.535156 27.734375 C 17.125 27.734375 17.601562 28.210938 17.601562 28.800781 L 17.601562 30.933594 C 17.601562 31.523438 17.125 32 16.535156 32 Z M 15.46875 28.800781 L 15.46875 30.933594 L 16.535156 30.933594 L 16.535156 28.800781 Z M 15.46875 28.800781 "/>
<path style=" stroke:none;fill-rule:nonzero;fill:rgb(25.882353%,55.294118%,100%);fill-opacity:1;" d="M 29.867188 31.46875 C 29.574219 31.46875 29.332031 31.226562 29.332031 30.933594 L 29.332031 27.734375 C 29.332031 27.441406 29.574219 27.203125 29.867188 27.203125 C 30.160156 27.203125 30.398438 27.441406 30.398438 27.734375 L 30.398438 30.933594 C 30.398438 31.226562 30.160156 31.46875 29.867188 31.46875 Z M 29.867188 31.46875 "/>
<path style=" stroke:none;fill-rule:nonzero;fill:rgb(25.882353%,55.294118%,100%);fill-opacity:1;" d="M 29.867188 32 C 29.726562 32 29.589844 31.945312 29.488281 31.84375 L 27.890625 30.246094 C 27.6875 30.035156 27.691406 29.703125 27.898438 29.496094 C 28.101562 29.292969 28.433594 29.289062 28.644531 29.492188 L 29.867188 30.714844 L 31.089844 29.492188 C 31.300781 29.289062 31.632812 29.292969 31.835938 29.496094 C 32.042969 29.703125 32.046875 30.035156 31.84375 30.246094 L 30.242188 31.84375 C 30.144531 31.945312 30.007812 32 29.867188 32 Z M 29.867188 32 "/>
<path style=" stroke:none;fill-rule:nonzero;fill:rgb(25.882353%,55.294118%,100%);fill-opacity:1;" d="M 29.867188 26.136719 C 29.574219 26.136719 29.332031 25.894531 29.332031 25.601562 L 29.332031 24.535156 C 29.332031 24.242188 29.574219 24.003906 29.867188 24.003906 C 30.160156 24.003906 30.398438 24.242188 30.398438 24.535156 L 30.398438 25.601562 C 30.398438 25.894531 30.160156 26.136719 29.867188 26.136719 Z M 29.867188 26.136719 "/>
<path style=" stroke:none;fill-rule:nonzero;fill:rgb(25.882353%,55.294118%,100%);fill-opacity:1;" d="M 29.867188 22.9375 C 29.574219 22.9375 29.332031 22.695312 29.332031 22.402344 L 29.332031 21.335938 C 29.332031 21.042969 29.574219 20.800781 29.867188 20.800781 C 30.160156 20.800781 30.398438 21.042969 30.398438 21.335938 L 30.398438 22.402344 C 30.398438 22.695312 30.160156 22.9375 29.867188 22.9375 Z M 29.867188 22.9375 "/>
<path style=" stroke:none;fill-rule:nonzero;fill:rgb(25.882353%,55.294118%,100%);fill-opacity:1;" d="M 2.140625 31.46875 C 1.84375 31.46875 1.605469 31.226562 1.605469 30.933594 L 1.605469 27.734375 C 1.605469 27.441406 1.84375 27.203125 2.140625 27.203125 C 2.433594 27.203125 2.671875 27.441406 2.671875 27.734375 L 2.671875 30.933594 C 2.671875 31.226562 2.433594 31.46875 2.140625 31.46875 Z M 2.140625 31.46875 "/>
<path style=" stroke:none;fill-rule:nonzero;fill:rgb(25.882353%,55.294118%,100%);fill-opacity:1;" d="M 2.140625 32 C 2 32 1.863281 31.945312 1.761719 31.84375 L 0.164062 30.246094 C 0.0234375 30.109375 -0.03125 29.914062 0.015625 29.726562 C 0.0664062 29.539062 0.210938 29.394531 0.398438 29.34375 C 0.585938 29.296875 0.78125 29.351562 0.917969 29.492188 L 2.140625 30.714844 L 3.363281 29.492188 C 3.570312 29.289062 3.902344 29.292969 4.109375 29.496094 C 4.316406 29.703125 4.316406 30.035156 4.117188 30.246094 L 2.515625 31.84375 C 2.417969 31.945312 2.28125 32 2.140625 32 Z M 2.140625 32 "/>
<path style=" stroke:none;fill-rule:nonzero;fill:rgb(25.882353%,55.294118%,100%);fill-opacity:1;" d="M 2.140625 26.136719 C 1.84375 26.136719 1.605469 25.894531 1.605469 25.601562 L 1.605469 24.535156 C 1.605469 24.242188 1.84375 24.003906 2.140625 24.003906 C 2.433594 24.003906 2.671875 24.242188 2.671875 24.535156 L 2.671875 25.601562 C 2.671875 25.894531 2.433594 26.136719 2.140625 26.136719 Z M 2.140625 26.136719 "/>
<path style=" stroke:none;fill-rule:nonzero;fill:rgb(25.882353%,55.294118%,100%);fill-opacity:1;" d="M 2.140625 22.9375 C 1.84375 22.9375 1.605469 22.695312 1.605469 22.402344 L 1.605469 21.335938 C 1.605469 21.042969 1.84375 20.800781 2.140625 20.800781 C 2.433594 20.800781 2.671875 21.042969 2.671875 21.335938 L 2.671875 22.402344 C 2.671875 22.695312 2.433594 22.9375 2.140625 22.9375 Z M 2.140625 22.9375 "/>
</g>
</svg>
