<?xml version="1.0" encoding="UTF-8"?>
<svg xmlns="http://www.w3.org/2000/svg" xmlns:xlink="http://www.w3.org/1999/xlink" width="68pt" height="68pt" viewBox="0 0 68 68" version="1.1">
<g id="surface1">
<path style=" stroke:none;fill-rule:nonzero;fill:rgb(94.901961%,94.901961%,94.901961%);fill-opacity:1;" d="M 68 34 C 68 52.777344 52.777344 68 34 68 C 16.675781 68 2.378906 55.042969 0.269531 38.289062 C 0.0898438 36.886719 0 35.453125 0 34 C 0 31.339844 0.304688 28.746094 0.882812 26.261719 C 4.386719 11.214844 17.882812 0 34 0 C 50.074219 0 63.546875 11.15625 67.089844 26.152344 C 67.554688 28.113281 67.847656 30.136719 67.953125 32.210938 C 67.984375 32.804688 68 33.402344 68 34 Z M 68 34 "/>
<path style=" stroke:none;fill-rule:nonzero;fill:rgb(23.137255%,52.941176%,22.352941%);fill-opacity:1;" d="M 32.300781 36.730469 L 32.300781 27.890625 L 24.644531 23.472656 L 16.988281 27.890625 L 16.988281 36.730469 L 24.644531 41.148438 Z M 32.300781 36.730469 "/>
<path style=" stroke:none;fill-rule:nonzero;fill:rgb(20%,20%,20%);fill-opacity:1;" d="M 62.449219 35.390625 L 67.4375 38.269531 L 62.449219 41.152344 L 54.792969 36.730469 L 54.792969 27.890625 L 62.449219 23.472656 L 67.089844 26.152344 C 67.554688 28.113281 67.847656 30.136719 67.953125 32.210938 L 65.117188 33.851562 L 65.117188 30.769531 L 62.449219 29.230469 L 59.78125 30.769531 L 59.78125 33.851562 Z M 62.449219 35.390625 "/>
<path style=" stroke:none;fill-rule:nonzero;fill:rgb(40%,62.745098%,37.647059%);fill-opacity:1;" d="M 63.933594 33.167969 L 63.933594 31.453125 L 62.449219 30.59375 L 60.960938 31.453125 L 60.960938 33.167969 L 62.449219 34.027344 Z M 63.933594 33.167969 "/>
<path style=" stroke:none;fill-rule:nonzero;fill:rgb(20%,20%,20%);fill-opacity:1;" d="M 13.371094 27.890625 L 13.371094 39.546875 L 8.265625 36.636719 L 8.265625 30.660156 L 5.71875 29.1875 L 3.167969 30.660156 L 3.167969 36.636719 L 0.269531 38.289062 C 0.0898438 36.886719 0 35.453125 0 34 C 0 31.339844 0.304688 28.746094 0.882812 26.261719 L 5.71875 23.472656 Z M 13.371094 27.890625 "/>
<path style=" stroke:none;fill-rule:nonzero;fill:rgb(42.745098%,65.490196%,36.470588%);fill-opacity:1;" d="M 24.644531 23.46875 L 32.296875 36.730469 L 24.644531 41.148438 L 16.988281 27.890625 Z M 24.644531 23.46875 "/>
<path style=" stroke:none;fill-rule:nonzero;fill:rgb(33.333333%,63.921569%,26.666667%);fill-opacity:1;" d="M 16.988281 36.730469 L 19.617188 32.445312 L 16.988281 27.890625 Z M 16.988281 36.730469 "/>
<path style=" stroke:none;fill-rule:nonzero;fill:rgb(38.823529%,61.568627%,34.117647%);fill-opacity:1;" d="M 29.746094 32.308594 L 32.300781 27.890625 L 24.644531 23.472656 Z M 29.746094 32.308594 "/>
<path style=" stroke:none;fill-rule:nonzero;fill:rgb(20%,20%,20%);fill-opacity:1;" d="M 46.027344 13.226562 L 46.027344 24.953125 L 43.460938 23.472656 L 35.804688 27.890625 L 35.804688 36.730469 L 43.460938 41.152344 L 51.117188 36.730469 L 51.117188 15.949219 Z M 46.011719 33.785156 L 43.460938 35.257812 L 40.90625 33.785156 L 40.90625 30.835938 L 43.460938 29.363281 L 46.011719 30.835938 Z M 46.011719 33.785156 "/>
<path style=" stroke:none;fill-rule:nonzero;fill:rgb(40%,62.745098%,37.647059%);fill-opacity:1;" d="M 37.472656 47.640625 C 37.472656 47.640625 37.324219 46.351562 35.941406 46.351562 C 34.558594 46.351562 33.613281 46.53125 33.613281 47.296875 C 33.613281 48.0625 36.300781 48.0625 37.324219 48.363281 C 38.34375 48.664062 39.246094 49.445312 38.796875 50.828125 C 38.34375 52.210938 36.960938 52.359375 34.828125 52.359375 C 32.695312 52.359375 32.214844 50.585938 32.214844 49.894531 L 33.417969 49.894531 C 33.417969 49.894531 33.265625 50.976562 34.679688 51.15625 C 36.089844 51.339844 37.441406 51.441406 37.621094 50.347656 C 37.863281 48.902344 33.054688 49.625 32.632812 48.214844 C 32.277344 47.019531 32.484375 45.449219 34.886719 45.207031 C 37.292969 44.96875 38.613281 46.027344 38.613281 47.613281 Z M 37.472656 47.640625 "/>
<path style=" stroke:none;fill-rule:nonzero;fill:rgb(40%,62.745098%,37.647059%);fill-opacity:1;" d="M 25.863281 53.273438 L 28.519531 54.808594 C 29.855469 55.582031 31.523438 54.617188 31.523438 53.074219 L 31.523438 45.4375 L 30.441406 45.4375 L 30.441406 52.773438 C 30.441406 53.617188 29.527344 54.140625 28.800781 53.722656 L 26.945312 52.648438 L 26.945312 44.820312 L 33.722656 40.910156 L 40.503906 44.820312 L 40.503906 52.648438 L 33.722656 56.5625 L 31.769531 55.4375 L 30.496094 55.949219 L 33.722656 57.8125 L 41.585938 53.273438 L 41.585938 44.195312 L 33.722656 39.65625 L 25.863281 44.195312 Z M 25.863281 53.273438 "/>
</g>
</svg>
