<?xml version="1.0" encoding="UTF-8"?>
<svg xmlns="http://www.w3.org/2000/svg" xmlns:xlink="http://www.w3.org/1999/xlink" width="68pt" height="68pt" viewBox="0 0 68 68" version="1.1">
<g id="surface1">
<path style=" stroke:none;fill-rule:nonzero;fill:rgb(35.294118%,85.490196%,99.215686%);fill-opacity:1;" d="M 68 34 C 68 45.203125 62.582031 55.136719 54.226562 61.332031 C 50.726562 63.925781 46.714844 65.863281 42.367188 66.960938 C 39.691406 67.640625 36.886719 68 34 68 C 31.113281 68 28.308594 67.640625 25.632812 66.960938 C 21.285156 65.863281 17.273438 63.925781 13.773438 61.332031 C 5.417969 55.136719 0 45.199219 0 34 C 0 15.222656 15.222656 0 34 0 C 52.777344 0 68 15.222656 68 34 Z M 68 34 "/>
<path style=" stroke:none;fill-rule:nonzero;fill:rgb(94.901961%,94.901961%,94.901961%);fill-opacity:1;" d="M 54.261719 53.144531 C 54.101562 52.074219 53.890625 50.972656 53.628906 49.84375 C 53.398438 48.855469 53.128906 47.847656 52.828125 46.824219 C 52.027344 44.132812 50.972656 41.339844 49.695312 38.511719 C 49.136719 37.277344 48.535156 36.039062 47.894531 34.796875 C 47.328125 33.707031 46.730469 32.613281 46.101562 31.527344 C 45.472656 30.4375 44.828125 29.375 44.164062 28.339844 C 43.410156 27.164062 42.640625 26.023438 41.847656 24.921875 C 40.039062 22.402344 38.148438 20.089844 36.214844 18.054688 C 35.480469 17.277344 34.742188 16.542969 34 15.847656 C 33.15625 15.058594 32.304688 14.324219 31.457031 13.652344 C 25.921875 9.257812 20.964844 7.9375 17.5 9.9375 C 14.035156 11.9375 12.699219 16.890625 13.738281 23.882812 C 13.898438 24.953125 14.109375 26.054688 14.371094 27.179688 C 14.597656 28.171875 14.867188 29.179688 15.171875 30.203125 C 15.972656 32.894531 17.023438 35.6875 18.304688 38.511719 C 18.859375 39.75 19.464844 40.988281 20.105469 42.226562 C 20.671875 43.320312 21.269531 44.414062 21.898438 45.5 C 22.523438 46.589844 23.171875 47.652344 23.835938 48.6875 C 24.589844 49.863281 25.363281 51.003906 26.152344 52.105469 C 27.957031 54.625 29.851562 56.933594 31.78125 58.972656 C 32.515625 59.75 33.257812 60.484375 34 61.175781 C 34.84375 61.96875 35.695312 62.703125 36.542969 63.375 C 38.578125 64.992188 40.535156 66.191406 42.367188 66.960938 C 46.714844 65.863281 50.726562 63.925781 54.226562 61.332031 C 54.714844 59.082031 54.730469 56.324219 54.261719 53.144531 Z M 51.144531 60.828125 C 50.738281 62.574219 49.996094 63.769531 48.933594 64.382812 C 47.875 64.996094 46.46875 65.039062 44.753906 64.519531 C 42.898438 63.949219 40.730469 62.710938 38.484375 60.925781 C 37.730469 60.328125 36.972656 59.675781 36.214844 58.972656 C 35.476562 58.285156 34.734375 57.550781 34 56.773438 C 32.734375 55.433594 31.488281 53.972656 30.269531 52.402344 C 29.457031 51.355469 28.65625 50.261719 27.875 49.125 C 26.738281 47.476562 25.644531 45.742188 24.601562 43.9375 C 23.5625 42.132812 22.605469 40.320312 21.746094 38.511719 C 21.152344 37.269531 20.605469 36.027344 20.105469 34.800781 C 19.355469 32.960938 18.710938 31.144531 18.1875 29.382812 C 17.882812 28.359375 17.613281 27.351562 17.390625 26.363281 C 17.160156 25.359375 16.972656 24.375 16.832031 23.421875 C 16.410156 20.585938 16.417969 18.089844 16.855469 16.199219 C 17.257812 14.453125 18.003906 13.257812 19.0625 12.644531 C 19.636719 12.3125 20.308594 12.148438 21.078125 12.148438 C 21.730469 12.148438 22.457031 12.269531 23.246094 12.507812 C 25.101562 13.074219 27.269531 14.316406 29.515625 16.097656 C 30.269531 16.699219 31.027344 17.351562 31.78125 18.054688 C 32.523438 18.742188 33.265625 19.476562 34 20.253906 C 35.261719 21.589844 36.511719 23.054688 37.730469 24.625 C 38.542969 25.671875 39.34375 26.765625 40.125 27.902344 C 41.257812 29.550781 42.355469 31.285156 43.394531 33.089844 C 44.4375 34.894531 45.390625 36.707031 46.25 38.511719 C 46.84375 39.757812 47.394531 41 47.894531 42.226562 C 48.644531 44.070312 49.285156 45.882812 49.8125 47.640625 C 50.117188 48.667969 50.386719 49.675781 50.609375 50.664062 C 50.839844 51.667969 51.027344 52.648438 51.167969 53.605469 C 51.589844 56.4375 51.582031 58.9375 51.144531 60.828125 Z M 51.144531 60.828125 "/>
<path style=" stroke:none;fill-rule:nonzero;fill:rgb(94.901961%,94.901961%,94.901961%);fill-opacity:1;" d="M 56.800781 28.285156 C 55.792969 27.886719 54.734375 27.519531 53.628906 27.179688 C 52.65625 26.886719 51.648438 26.613281 50.609375 26.363281 C 47.878906 25.710938 44.933594 25.226562 41.847656 24.921875 C 40.5 24.785156 39.125 24.6875 37.730469 24.625 C 36.503906 24.566406 35.257812 24.539062 34 24.539062 C 32.742188 24.539062 31.496094 24.566406 30.265625 24.625 C 28.871094 24.6875 27.496094 24.785156 26.148438 24.921875 C 23.066406 25.226562 20.117188 25.710938 17.390625 26.363281 C 16.351562 26.613281 15.34375 26.886719 14.371094 27.179688 C 13.265625 27.519531 12.203125 27.886719 11.199219 28.285156 C 4.625 30.878906 1 34.511719 1 38.511719 C 1 42.515625 4.625 46.148438 11.199219 48.742188 C 12.203125 49.140625 13.261719 49.507812 14.371094 49.847656 C 15.339844 50.140625 16.347656 50.414062 17.386719 50.664062 C 20.117188 51.316406 23.066406 51.800781 26.152344 52.105469 C 27.5 52.242188 28.875 52.339844 30.269531 52.402344 C 31.496094 52.460938 32.742188 52.488281 34 52.488281 C 35.257812 52.488281 36.5 52.460938 37.730469 52.402344 C 39.125 52.339844 40.5 52.242188 41.847656 52.105469 C 44.933594 51.800781 47.882812 51.316406 50.609375 50.664062 C 51.648438 50.414062 52.65625 50.140625 53.628906 49.84375 C 54.734375 49.507812 55.792969 49.140625 56.800781 48.742188 C 63.375 46.148438 66.996094 42.515625 66.996094 38.511719 C 66.996094 34.511719 63.375 30.878906 56.800781 28.285156 Z M 61.898438 42.203125 C 60.476562 43.527344 58.320312 44.78125 55.652344 45.835938 C 54.753906 46.191406 53.8125 46.519531 52.828125 46.824219 C 51.859375 47.121094 50.851562 47.394531 49.8125 47.640625 C 48.023438 48.066406 46.132812 48.417969 44.164062 48.6875 C 42.847656 48.871094 41.503906 49.015625 40.125 49.121094 C 38.132812 49.28125 36.082031 49.363281 34 49.363281 C 31.917969 49.363281 29.867188 49.28125 27.871094 49.125 C 26.496094 49.015625 25.148438 48.871094 23.835938 48.6875 C 21.867188 48.417969 19.976562 48.066406 18.1875 47.640625 C 17.144531 47.394531 16.140625 47.121094 15.171875 46.824219 C 14.1875 46.519531 13.242188 46.191406 12.34375 45.835938 C 9.679688 44.78125 7.519531 43.527344 6.101562 42.203125 C 4.792969 40.980469 4.128906 39.738281 4.128906 38.511719 C 4.128906 37.289062 4.792969 36.046875 6.101562 34.824219 C 7.519531 33.5 9.679688 32.242188 12.34375 31.191406 C 13.242188 30.835938 14.1875 30.503906 15.171875 30.203125 C 16.140625 29.90625 17.144531 29.632812 18.1875 29.382812 C 19.976562 28.957031 21.867188 28.609375 23.835938 28.339844 C 25.148438 28.15625 26.496094 28.011719 27.871094 27.902344 C 29.867188 27.742188 31.917969 27.664062 34 27.664062 C 36.082031 27.664062 38.132812 27.742188 40.125 27.902344 C 41.503906 28.011719 42.847656 28.15625 44.164062 28.339844 C 46.132812 28.609375 48.023438 28.957031 49.8125 29.382812 C 50.851562 29.632812 51.859375 29.90625 52.828125 30.203125 C 53.8125 30.507812 54.753906 30.835938 55.652344 31.191406 C 58.320312 32.242188 60.476562 33.5 61.898438 34.824219 C 63.207031 36.046875 63.871094 37.289062 63.871094 38.511719 C 63.871094 39.738281 63.207031 40.980469 61.898438 42.203125 Z M 61.898438 42.203125 "/>
<path style=" stroke:none;fill-rule:nonzero;fill:rgb(94.901961%,94.901961%,94.901961%);fill-opacity:1;" d="M 50.496094 9.9375 C 47.03125 7.9375 42.078125 9.257812 36.539062 13.652344 C 35.695312 14.324219 34.84375 15.058594 34 15.847656 C 33.257812 16.542969 32.515625 17.277344 31.78125 18.054688 C 29.851562 20.09375 27.957031 22.402344 26.148438 24.917969 C 25.359375 26.023438 24.585938 27.164062 23.835938 28.339844 C 23.171875 29.375 22.523438 30.4375 21.898438 31.527344 C 21.269531 32.613281 20.671875 33.707031 20.105469 34.800781 C 19.464844 36.039062 18.859375 37.277344 18.304688 38.511719 C 17.023438 41.339844 15.972656 44.132812 15.171875 46.824219 C 14.867188 47.847656 14.597656 48.855469 14.371094 49.847656 C 14.109375 50.972656 13.898438 52.074219 13.738281 53.144531 C 13.265625 56.324219 13.285156 59.082031 13.773438 61.332031 C 17.273438 63.925781 21.285156 65.863281 25.632812 66.960938 C 27.464844 66.191406 29.421875 64.992188 31.457031 63.375 C 32.304688 62.703125 33.15625 61.96875 34 61.175781 C 34.742188 60.484375 35.484375 59.75 36.214844 58.972656 C 38.144531 56.9375 40.042969 54.625 41.847656 52.105469 C 42.636719 51.003906 43.410156 49.863281 44.164062 48.6875 C 44.828125 47.652344 45.472656 46.589844 46.101562 45.5 C 46.730469 44.414062 47.328125 43.320312 47.894531 42.226562 C 48.535156 40.988281 49.136719 39.746094 49.695312 38.511719 C 50.972656 35.6875 52.027344 32.890625 52.828125 30.203125 C 53.128906 29.179688 53.398438 28.167969 53.628906 27.179688 C 53.890625 26.054688 54.101562 24.953125 54.261719 23.882812 C 55.296875 16.890625 53.964844 11.9375 50.496094 9.9375 Z M 49.8125 29.382812 C 49.285156 31.144531 48.644531 32.957031 47.894531 34.796875 C 47.394531 36.027344 46.84375 37.265625 46.25 38.511719 C 45.390625 40.320312 44.4375 42.132812 43.394531 43.9375 C 42.355469 45.742188 41.257812 47.476562 40.128906 49.121094 C 39.34375 50.261719 38.542969 51.355469 37.730469 52.402344 C 36.511719 53.972656 35.261719 55.433594 34 56.773438 C 33.265625 57.546875 32.523438 58.285156 31.78125 58.972656 C 31.027344 59.675781 30.269531 60.328125 29.515625 60.925781 C 27.269531 62.710938 25.101562 63.949219 23.246094 64.519531 C 21.53125 65.039062 20.125 64.996094 19.0625 64.382812 C 18.003906 63.769531 17.257812 62.574219 16.855469 60.828125 C 16.417969 58.9375 16.410156 56.4375 16.832031 53.601562 C 16.972656 52.648438 17.160156 51.667969 17.390625 50.664062 C 17.613281 49.675781 17.882812 48.667969 18.1875 47.640625 C 18.710938 45.878906 19.355469 44.066406 20.105469 42.226562 C 20.605469 41 21.152344 39.757812 21.746094 38.511719 C 22.605469 36.707031 23.5625 34.890625 24.605469 33.089844 C 25.644531 31.285156 26.738281 29.550781 27.875 27.902344 C 28.65625 26.765625 29.453125 25.671875 30.265625 24.625 C 31.488281 23.054688 32.734375 21.589844 34 20.253906 C 34.734375 19.476562 35.476562 18.742188 36.214844 18.054688 C 36.972656 17.351562 37.730469 16.699219 38.484375 16.097656 C 40.730469 14.316406 42.898438 13.074219 44.753906 12.507812 C 45.542969 12.269531 46.265625 12.148438 46.921875 12.148438 C 47.6875 12.148438 48.363281 12.3125 48.933594 12.644531 C 49.996094 13.257812 50.738281 14.453125 51.144531 16.199219 C 51.578125 18.089844 51.589844 20.585938 51.167969 23.421875 C 51.027344 24.375 50.839844 25.359375 50.609375 26.363281 C 50.386719 27.351562 50.117188 28.355469 49.8125 29.382812 Z M 49.8125 29.382812 "/>
<path style=" stroke:none;fill-rule:nonzero;fill:rgb(94.901961%,94.901961%,94.901961%);fill-opacity:1;" d="M 40.203125 38.511719 C 40.203125 41.9375 37.425781 44.714844 34 44.714844 C 30.574219 44.714844 27.796875 41.9375 27.796875 38.511719 C 27.796875 35.085938 30.574219 32.3125 34 32.3125 C 37.425781 32.3125 40.203125 35.085938 40.203125 38.511719 Z M 40.203125 38.511719 "/>
</g>
</svg>
