<?xml version="1.0" encoding="UTF-8"?>
<svg xmlns="http://www.w3.org/2000/svg" xmlns:xlink="http://www.w3.org/1999/xlink" width="68pt" height="68pt" viewBox="0 0 68 68" version="1.1">
<g id="surface1">
<path style=" stroke:none;fill-rule:nonzero;fill:rgb(0%,84.313725%,87.45098%);fill-opacity:1;" d="M 18.132812 23.800781 C 8.75 23.800781 1.132812 21.261719 1.132812 18.132812 L 1.132812 29.464844 C 1.132812 32.59375 8.75 35.132812 18.132812 35.132812 C 27.515625 35.132812 35.132812 32.59375 35.132812 29.464844 L 35.132812 18.132812 C 35.132812 21.261719 27.515625 23.800781 18.132812 23.800781 Z M 18.132812 23.800781 "/>
<path style=" stroke:none;fill-rule:nonzero;fill:rgb(100%,92.156863%,60%);fill-opacity:1;" d="M 18.132812 35.132812 C 8.75 35.132812 1.132812 32.59375 1.132812 29.464844 L 1.132812 40.800781 C 1.132812 43.929688 8.75 46.464844 18.132812 46.464844 C 27.515625 46.464844 35.132812 43.929688 35.132812 40.800781 L 35.132812 29.464844 C 35.132812 32.59375 27.515625 35.132812 18.132812 35.132812 Z M 18.132812 35.132812 "/>
<path style=" stroke:none;fill-rule:nonzero;fill:rgb(100%,92.156863%,60%);fill-opacity:1;" d="M 18.132812 23.800781 C 27.515625 23.800781 35.132812 21.261719 35.132812 18.132812 L 35.132812 6.800781 C 35.132812 9.929688 27.523438 12.464844 18.132812 12.464844 C 8.746094 12.464844 1.132812 9.929688 1.132812 6.800781 L 1.132812 18.132812 C 1.132812 21.261719 8.75 23.800781 18.132812 23.800781 Z M 18.132812 23.800781 "/>
<path style=" stroke:none;fill-rule:nonzero;fill:rgb(67.45098%,67.058824%,69.411765%);fill-opacity:1;" d="M 60.066406 53.265625 L 56.082031 53.265625 L 56.496094 52.855469 C 59.152344 50.207031 59.160156 45.90625 56.511719 43.253906 C 54.628906 41.363281 51.816406 40.75 49.320312 41.6875 C 46.382812 36.847656 40.3125 34.941406 35.132812 37.226562 C 33.011719 38.160156 31.226562 39.714844 30.011719 41.6875 C 26.5 40.371094 22.585938 42.152344 21.273438 45.664062 C 20.335938 48.160156 20.949219 50.972656 22.835938 52.855469 L 23.25 53.265625 L 19.265625 53.265625 C 15.511719 53.265625 12.464844 56.3125 12.464844 60.066406 C 12.464844 63.820312 15.511719 66.867188 19.265625 66.867188 L 60.066406 66.867188 C 63.820312 66.867188 66.867188 63.820312 66.867188 60.066406 C 66.867188 56.3125 63.820312 53.265625 60.066406 53.265625 Z M 34 51 L 34 49.867188 L 26.066406 49.867188 L 26.066406 55.535156 L 34 55.535156 L 34 61.199219 L 26.066406 61.199219 L 34 61.199219 L 34 55.535156 L 26.066406 55.535156 L 26.066406 49.867188 L 34 49.867188 Z M 44.199219 61.199219 L 37.398438 61.199219 L 37.398438 49.867188 L 45.332031 49.867188 L 45.332031 61.199219 L 44.199219 61.199219 L 46.464844 63.464844 Z M 56.667969 61.199219 L 48.734375 61.199219 L 48.734375 49.867188 L 48.734375 61.199219 Z M 56.667969 61.199219 "/>
<path style=" stroke:none;fill-rule:nonzero;fill:rgb(67.45098%,67.058824%,69.411765%);fill-opacity:1;" d="M 45.332031 49.867188 L 37.398438 49.867188 L 37.398438 61.199219 L 44.199219 61.199219 L 41.933594 58.933594 L 44.199219 61.199219 L 45.332031 61.199219 Z M 45.332031 49.867188 "/>
<path style=" stroke:none;fill-rule:nonzero;fill:rgb(100%,92.156863%,60%);fill-opacity:1;" d="M 35.132812 6.800781 C 35.132812 3.671875 27.523438 1.132812 18.132812 1.132812 C 8.746094 1.132812 1.132812 3.671875 1.132812 6.800781 C 1.132812 9.929688 8.746094 12.464844 18.132812 12.464844 C 27.523438 12.464844 35.132812 9.929688 35.132812 6.800781 Z M 35.132812 6.800781 "/>
<path style=" stroke:none;fill-rule:nonzero;fill:rgb(13.72549%,12.156863%,12.54902%);fill-opacity:1;" d="M 49.867188 48.734375 L 48.734375 48.734375 C 48.109375 48.734375 47.601562 49.242188 47.601562 49.867188 L 47.601562 61.199219 C 47.601562 61.824219 48.109375 62.332031 48.734375 62.332031 L 56.667969 62.332031 C 57.292969 62.332031 57.800781 61.824219 57.800781 61.199219 L 57.800781 60.066406 L 49.867188 60.066406 Z M 49.867188 48.734375 "/>
<path style=" stroke:none;fill-rule:nonzero;fill:rgb(13.72549%,12.156863%,12.54902%);fill-opacity:1;" d="M 46.464844 61.199219 L 46.464844 49.867188 C 46.464844 49.242188 45.960938 48.734375 45.332031 48.734375 L 37.398438 48.734375 C 36.773438 48.734375 36.265625 49.242188 36.265625 49.867188 L 36.265625 61.199219 C 36.265625 61.824219 36.773438 62.332031 37.398438 62.332031 L 43.730469 62.332031 L 45.664062 64.269531 L 47.269531 62.664062 L 46.324219 61.722656 C 46.414062 61.5625 46.464844 61.382812 46.464844 61.199219 Z M 38.535156 60.066406 L 38.535156 51 L 44.199219 51 L 44.199219 59.597656 L 42.734375 58.132812 L 41.132812 59.734375 L 41.464844 60.066406 Z M 38.535156 60.066406 "/>
<path style=" stroke:none;fill-rule:nonzero;fill:rgb(13.72549%,12.156863%,12.54902%);fill-opacity:1;" d="M 34 48.734375 L 26.066406 48.734375 C 25.441406 48.734375 24.933594 49.242188 24.933594 49.867188 L 24.933594 56.667969 L 32.867188 56.667969 L 32.867188 60.066406 L 24.933594 60.066406 L 24.933594 61.199219 C 24.933594 61.824219 25.441406 62.332031 26.066406 62.332031 L 34 62.332031 C 34.625 62.332031 35.132812 61.824219 35.132812 61.199219 L 35.132812 54.398438 L 27.199219 54.398438 L 27.199219 51 L 35.132812 51 L 35.132812 49.867188 C 35.132812 49.242188 34.625 48.734375 34 48.734375 Z M 34 48.734375 "/>
<path style=" stroke:none;fill-rule:nonzero;fill:rgb(13.72549%,12.156863%,12.54902%);fill-opacity:1;" d="M 60.066406 52.132812 L 58.488281 52.132812 C 60.746094 48.386719 59.539062 43.519531 55.792969 41.261719 C 53.996094 40.175781 51.839844 39.851562 49.800781 40.355469 C 47.472656 37.070312 43.691406 35.121094 39.667969 35.132812 C 38.515625 35.136719 37.371094 35.300781 36.265625 35.621094 L 36.265625 6.800781 C 36.265625 2.335938 27.144531 0 18.132812 0 C 9.121094 0 0 2.335938 0 6.800781 L 0 40.800781 C 0 45.265625 9.121094 47.601562 18.132812 47.601562 C 18.660156 47.601562 19.203125 47.589844 19.753906 47.570312 C 19.648438 49.167969 20.027344 50.757812 20.84375 52.132812 L 19.265625 52.132812 C 14.886719 52.132812 11.332031 55.683594 11.332031 60.066406 C 11.332031 64.449219 14.886719 68 19.265625 68 L 60.066406 68 C 64.449219 68 68 64.449219 68 60.066406 C 68 55.683594 64.449219 52.132812 60.066406 52.132812 Z M 18.132812 2.265625 C 27.820312 2.265625 34 4.953125 34 6.800781 C 34 8.648438 27.820312 11.332031 18.132812 11.332031 C 8.449219 11.332031 2.265625 8.648438 2.265625 6.800781 C 2.265625 4.953125 8.449219 2.265625 18.132812 2.265625 Z M 2.265625 10.261719 C 5.53125 12.464844 11.851562 13.601562 18.132812 13.601562 C 24.414062 13.601562 30.738281 12.464844 34 10.261719 L 34 18.132812 C 34 19.980469 27.820312 22.667969 18.132812 22.667969 C 8.449219 22.667969 2.265625 19.980469 2.265625 18.132812 Z M 2.265625 21.597656 C 5.53125 23.800781 11.851562 24.933594 18.132812 24.933594 C 24.414062 24.933594 30.738281 23.800781 34 21.597656 L 34 29.464844 C 34 31.316406 27.820312 34 18.132812 34 C 8.449219 34 2.265625 31.316406 2.265625 29.464844 Z M 18.132812 45.332031 C 8.449219 45.332031 2.265625 42.648438 2.265625 40.800781 L 2.265625 32.929688 C 5.53125 35.132812 11.851562 36.265625 18.132812 36.265625 C 24.414062 36.265625 30.738281 35.132812 34 32.929688 L 34 36.492188 C 32.222656 37.402344 30.691406 38.730469 29.535156 40.355469 C 26.84375 39.695312 24 40.484375 22.035156 42.4375 C 21.238281 43.246094 20.625 44.214844 20.238281 45.28125 C 19.523438 45.3125 18.8125 45.332031 18.132812 45.332031 Z M 60.066406 65.734375 L 19.265625 65.734375 C 16.136719 65.734375 13.601562 63.195312 13.601562 60.066406 C 13.601562 56.9375 16.136719 54.398438 19.265625 54.398438 L 23.25 54.398438 C 23.875 54.402344 24.382812 53.894531 24.386719 53.265625 C 24.386719 52.964844 24.265625 52.675781 24.050781 52.464844 L 23.636719 52.054688 C 21.425781 49.847656 21.417969 46.265625 23.621094 44.054688 C 25.191406 42.476562 27.535156 41.96875 29.617188 42.75 C 30.125 42.9375 30.695312 42.742188 30.976562 42.28125 C 33.902344 37.480469 40.164062 35.960938 44.964844 38.886719 C 46.347656 39.730469 47.511719 40.894531 48.355469 42.28125 C 48.640625 42.742188 49.210938 42.9375 49.714844 42.75 C 52.640625 41.652344 55.902344 43.132812 57 46.058594 C 57.78125 48.136719 57.269531 50.484375 55.695312 52.054688 L 55.28125 52.464844 C 54.839844 52.90625 54.835938 53.625 55.28125 54.066406 C 55.492188 54.28125 55.78125 54.398438 56.082031 54.398438 L 60.066406 54.398438 C 63.195312 54.398438 65.734375 56.9375 65.734375 60.066406 C 65.734375 63.195312 63.195312 65.734375 60.066406 65.734375 Z M 60.066406 65.734375 "/>
</g>
</svg>
